<svg xmlns="http://www.w3.org/2000/svg" xmlns:xlink="http://www.w3.org/1999/xlink" width="408" height="408" viewBox="0 0 408 408"><defs><filter id="a" x="9" y="12" width="390" height="390" filterUnits="userSpaceOnUse"><feOffset dy="3" input="SourceAlpha"/><feGaussianBlur stdDeviation="5" result="b"/><feFlood flood-color="#07060a" flood-opacity="0.18"/><feComposite operator="in" in2="b"/><feComposite in="SourceGraphic"/></filter></defs><g transform="translate(-425 -219)"><g transform="matrix(1, 0, 0, 1, 425, 219)" filter="url(#a)"><circle cx="180" cy="180" r="180" transform="translate(24 24)" fill="#151331"/></g><path d="M204,0h3.526l.093,0,.087,0h.482l.08,0,.081,0h.241l.081,0h.485l.078,0h.086l.091,0,.1,0,.08,0h.885l.079,0h.115l.05,0h.031l.051,0h.029l.053,0,.084,0,.081,0h.022l.069,0h.011l.325.011.08,0,.08,0,.08,0h.027l.054,0h.027l.052,0h.03l.051,0h.029l.051,0h.03l.051,0h.028l.052,0h.028l.053,0h.026l.055,0h.026l.056,0,.08,0,.083,0,.083,0h.018l.073,0h.006l.075,0h.007l.487.021h.009l.072,0h.009l.069,0,.082,0,.08,0,.08,0,.079,0,.082,0,.081,0h.019l.063,0h.017l.063,0h.018l.064,0h.017l.064,0h.016l.066,0h.014l.068,0h.013l.074,0h.005l.894.048h0l.077,0h0l.077,0h0l.076,0h0l.075,0h.007l.078,0h0q4.067.234,8.088.625l-.484,4.977C217.056,5.317,210.5,5,204,5V0Zm31.875,2.476q5.636.884,11.166,2.073h.006l.065.014.012,0,.059.013.019,0,.054.012.023,0,.052.011.025.005.049.011.028.006.047.01.03.007.046.01.031.007.045.01.033.007.04.009.039.008.036.008.042.009.033.007.045.01.031.007.048.011.026.006.051.011.025.006.053.012.021,0,.056.012.021,0,.057.013.018,0,.059.013.018,0,.06.013.016,0,.061.014.017,0,.061.014.015,0,.063.014.014,0,.065.015.01,0,.067.015.011,0,.067.015.008,0,.071.016h0l.152.034h0c2.111.477,4.218.989,6.3,1.531l-1.257,4.839C247.928,9.755,241.5,8.42,235.1,7.415ZM266.966,9.9q7.569,2.453,14.863,5.47h0l.142.059h0l.142.059h0l.071.029h0l.067.028.008,0,.065.027.006,0,.065.027.008,0,.064.027.008,0,.062.026.011,0,.062.026.009,0,.062.026.011,0,.06.025.011,0,.058.024.017.007.055.023.016.007.056.023.017.007.053.022.019.008.051.022.022.009.05.021.022.009.049.021.023.01.049.021.022.009.048.02.027.011.044.019.027.011.045.019.028.012.044.019.027.011.044.019.029.012.042.018.029.012.042.018.031.013.04.017.03.013.041.017.032.014.038.016.033.014.038.016.035.015.036.015.034.015.038.016.035.015.036.015.035.015.036.015.037.016.035.015.035.015.036.015.037.016.034.015.037.016.033.014.039.017.033.014.037.016.034.015.04.017.031.013.04.017.032.014.04.017.031.013.039.017.031.014.042.018.028.012.042.018.03.013.042.018.028.012.043.019.028.012.045.02.026.011.044.019.028.012.045.02.026.011.046.02.014.006-2,4.581c-5.937-2.6-12.069-4.925-18.228-6.921L266.966,9.9ZM296.5,22.129c.613.313,1.233.632,1.843.951l.036.019.016.008.053.028.014.007.126.066,0,0,.134.07.006,0q4.848,2.547,9.541,5.343l0,0,.129.077.006,0,.06.036.008,0,.057.034.016.009.053.032.009.006.057.034.009.006.058.035.008,0,.056.034.016.009.052.031.013.008.053.032.015.009.052.031.015.009.049.03.021.013.047.028.018.011.049.029.017.01.05.03.017.01.048.029.02.012.048.029.017.01.048.029.019.011.048.029.019.011.046.028.022.013.046.028.019.011.048.029.016.01.052.032.014.008.051.031.017.01.05.03.017.01.05.03.016.01.052.032.014.009.051.031.017.01.051.031.015.009.053.032.012.007.055.034.011.007.054.033.013.008.055.034.011.007.056.034.01.006.058.035.008.005.056.035.011.007.059.036.005,0,.063.039,0,0,.065.04h0l.065.04h0q1.46.9,2.9,1.825l-2.7,4.211c-5.46-3.5-11.152-6.758-16.919-9.7Zm27.255,16.7q4.132,3,8.105,6.2h0l.237.191,0,0,.058.047h0l.058.047,0,0,.056.045,0,0,.054.044.008.007.052.042.007.006.052.042.008.006.052.042.008.006.051.041.01.008.051.041.007.006.052.043.009.007.049.04.014.012.043.035.021.017.039.032.019.015.041.034.02.016.039.032.021.017.039.032.021.017.039.032.019.016.041.033.022.018.037.031.028.023.031.026.033.027.027.022.034.028.025.021.044.037.015.012q2.986,2.455,5.876,5.02l-3.319,3.74c-4.848-4.3-9.963-8.413-15.2-12.219ZM348.08,59.581q4.23,4.22,8.2,8.672l0,0,.04.044.013.014.035.04.016.018.031.035.021.023.031.035.02.023.028.031.025.028.024.027.028.032.021.024.031.035.021.024.03.034.019.022.033.037.018.02.034.039.016.018.036.041.014.016.038.043.011.013.04.045.012.013.041.047.008.009.043.049.01.011.043.049.007.008.045.051.006.007.046.053,0,0,.048.054,0,0,.049.055,0,0,.051.058h0q2.113,2.408,4.151,4.882l-3.859,3.179c-4.119-5-8.533-9.855-13.121-14.432l3.531-3.54Zm20.8,24.273c.166.227.33.453.495.68l0,0,.042.058,0,0,.037.051.01.013.034.048.01.015.032.045.014.019.031.043.014.019.027.038.02.028.023.032.021.03.023.032.023.032.021.03.024.033.02.028.027.037.017.023.028.039.017.024.029.04.016.022.029.04.016.022.031.044.012.017.033.046.012.017.034.047.011.015.034.048.011.015.035.05.009.013.036.051.009.012.038.053.007.009.039.054.006.009.041.058,0,0,.042.059,0,0q5.014,7.06,9.432,14.551l-4.307,2.539c-3.287-5.577-6.892-11.06-10.715-16.3Zm16.769,27.216q.568,1.108,1.122,2.223l0,0,.033.067v0l.033.066,0,.007.031.063,0,.008.03.06.006.011.029.059.006.011.028.057.006.013.028.056.007.014.026.054.009.018.026.052.009.018.025.05.011.022.024.048.011.023.022.045.013.026.021.044.013.027.02.041.015.03.019.039.016.032.018.037.016.033.019.038.016.032.017.035.017.035.017.034.018.036.015.031.019.039.015.03.02.04.014.028.021.042.013.027.021.044.012.025.022.045.012.026.021.044.012.025.022.046.011.023.023.048.01.021.024.049.011.022.024.049.009.018.025.052.008.017.025.053.008.016.026.054.007.015.027.055.006.012.027.057.007.014.028.057,0,.009.03.062,0,.007.031.064v0l.032.067,0,0,.032.067h0q3.11,6.5,5.767,13.242l-4.652,1.832c-2.372-6.023-5.073-12-8.03-17.769Zm12.3,29.509c.4,1.215.782,2.431,1.157,3.656v0l.022.071v0l.021.07,0,.008.02.067,0,.009.019.063,0,.016.018.06,0,.014.018.06,0,.014.018.061,0,.015.017.057.007.022.016.054.006.02.016.053.007.023.016.053.007.023.015.05.008.028.014.048.008.026.015.049.008.026.015.049.008.028.013.044.01.033.012.042.01.034.012.04.011.036.011.038.012.04.009.032.013.045.009.029.014.046.009.029.013.044.009.032.013.044.008.028.014.048.008.026.015.049.007.025.015.05.007.025.015.051.006.021.016.054.007.022.015.053.006.022.015.052.007.023.016.055,0,.016.017.059,0,.016.018.061,0,.012.018.063,0,.012.019.065,0,.007.02.069,0,.006.02.069,0,.006.02.068,0,.008.02.068v0l.02.071v0q.919,3.181,1.737,6.4v0l.017.067,0,.011.016.064,0,.012.016.065,0,.011.016.064,0,.013.015.061,0,.016.015.06,0,.016.015.061,0,.015.015.061,0,.017.014.055.006.023.013.053.006.023.013.052.006.024.013.051.007.028.011.045.008.032.011.044.008.032.011.043.008.034.01.042.009.037.009.036.01.041.009.035.01.041.008.034.01.042.008.034.011.044.007.03.011.046.008.032.011.044.007.031.011.046.007.029.012.05.006.023.013.055.005.021.014.057,0,.018.014.059,0,.018.015.061,0,.014.015.063,0,.014.016.065,0,.009.016.067,0,.009.017.071v0l.018.076h0c.289,1.2.568,2.416.835,3.629l-4.883,1.077c-1.4-6.327-3.123-12.655-5.134-18.81l4.753-1.553Zm7.5,31.073c.035.217.068.431.1.648h0l.012.078h0l.012.077v0l.012.075v0l.011.071,0,.011.01.067,0,.012.01.066,0,.013.01.067,0,.011.01.062,0,.019.009.059,0,.019.009.061,0,.017.01.065,0,.013.009.062,0,.018.01.066,0,.012.01.065,0,.015.023.155,0,.015.01.064,0,.031.007.046.005.036.006.042.006.042.005.035.007.044.005.034.006.042.005.036.006.042.005.037.007.045,0,.031.007.05,0,.027.007.051,0,.026.007.051,0,.028.007.05,0,.027.007.052,0,.026.008.053,0,.023.008.054,0,.025.008.055,0,.02.008.057,0,.022.008.055,0,.022.008.057,0,.02.008.058,0,.017.009.061,0,.015.009.064,0,.011.009.066,0,.013.009.066v.006l.01.072h0q.07.5.137,1v0l.009.067,0,.012.009.065,0,.012.009.067v.009l.009.068v.01l.008.064,0,.016.008.063,0,.014.008.063,0,.015.008.062,0,.016.008.06,0,.02.008.058,0,.019.008.06,0,.017.008.062,0,.014.008.061,0,.019.008.061,0,.015.008.062,0,.016.008.063,0,.014.008.062,0,.02.008.059,0,.014.008.064,0,.012.018.144v.01l.009.068h0c.022.173.044.346.065.52l0,.024.006.049,0,.029.005.044,0,.036.005.041,0,.037,0,.039.005.042,0,.037,0,.041,0,.038.005.042,0,.037,0,.04,0,.039.005.042,0,.035.005.043,0,.035.005.045,0,.033.005.046,0,.031.006.05,0,.029.006.05,0,.029.006.051,0,.029.006.051,0,.027.006.054,0,.025.006.055,0,.024.007.059,0,.018.008.065,0,.013.008.068v.011l.008.069v.011l.009.076v0q.628,5.474.964,11.029l-4.991.3c-.391-6.48-1.1-13-2.122-19.388ZM408,203.519c0,.131,0,.266,0,.4v0c0,.028,0,.054,0,.081h0c0,.028,0,.053,0,.081v.019c0,.021,0,.039,0,.06s0,.019,0,.028,0,.032,0,.053,0,.019,0,.028,0,.031,0,.051,0,.022,0,.033,0,.033,0,.047,0,.023,0,.034,0,.032,0,.046v.035c0,.014,0,.032,0,.046v.034c0,.014,0,.032,0,.045s0,.024,0,.036,0,.03,0,.044,0,.023,0,.035,0,.031,0,.045,0,.024,0,.036,0,.031,0,.045,0,.023,0,.035,0,.024,0,.045,0,.023,0,.036,0,.032,0,.052,0,.017,0,.026c0,.027,0,.046,0,.073,0,0,0,0,0,.007v.081c0,.006,0,.012,0,.018s0,.04,0,.06,0,.023,0,.035,0,.025,0,.045,0,.023,0,.035,0,.024,0,.045,0,.022,0,.033v.049c0,.01,0,.02,0,.031s0,.034,0,.048v.081c0,.011,0,.021,0,.032v.161c0,.014,0,.033,0,.047s0,.023,0,.034,0,.036,0,.05v.085c0,.008,0,.016,0,.023v.08c0,.055,0,.107,0,.162,0,0,0,.006,0,.009,0,.027,0,.044,0,.071,0,.006,0,.012,0,.018v.14c0,.011,0,.023,0,.033v.046c0,.011,0,.022,0,.033v.29c0,.01,0,.019,0,.029v.054c0,.009,0,.017,0,.027s0,.034,0,.055v.08c0,.008,0,.017,0,.025s0,.046,0,.067v.012c0,.082,0,.161,0,.243v.081c0,.007,0,.014,0,.021v.408c0,.014,0,.038,0,.051v.109c0,.021,0,.034,0,.055v.185c0,.082,0,.16-.005.243v.011l0,.069v.017c0,.021,0,.042,0,.062v.668l0,.058v.02l0,.074v.006c0,.055,0,.105,0,.16v.024l0,.057v.024l0,.055v.027l0,.054v.027l0,.051v.109l0,.052v.028l0,.052v.029l0,.049v.031l0,.052v.027l0,.059v.02l0,.068v.012c0,.082-.005.161-.008.243v.01l0,.07v.017l0,.062v.022l0,.059v.021l0,.059v.024l0,.055v.026l0,.053v.029l0,.052v.026l0,.054v.026l0,.055v.024l0,.056v.025l0,.064v.015l0,.079h0l-.006.16v.021l0,.06v.019l0,.06v.024l0,.056v.024l0,.054v.027l0,.054v.026l0,.052v.028l0,.053v.026l0,.053v.027l0,.053v.027l0,.053v.026l0,.059v.02l0,.071v.008l-.007.16v.022l0,.057v.027l0,.051v.032l0,.047v.031l0,.048v.031l0,.048v.031l0,.048,0,.034,0,.045,0,.035,0,.044,0,.037,0,.043,0,.035,0,.044,0,.036,0,.042,0,.036,0,.042,0,.038,0,.077,0,.03,0,.047,0,.042,0,.038,0,.04,0,.038,0,.04,0,.041,0,.038,0,.041,0,.038,0,.042,0,.037,0,.041,0,.037,0,.042,0,.037,0,.039,0,.041,0,.038,0,.041,0,.038,0,.04,0,.04,0,.04,0,.034,0,.045v.022l-.006.1,0,.028,0,.051v.026l0,.052v.026l0,.05,0,.03,0,.045,0,.033,0,.046,0,.032,0,.045,0,.034,0,.045,0,.035,0,.042,0,.036,0,.045,0,.03,0,.049,0,.025,0,.055v.016l0,.061v.013q-.009.142-.017.285v.009l0,.064v.013l0,.06V217l0,.063v.013l0,.063v.015l0,.061v.015l0,.06v.018l0,.06v.015l0,.062v.015l0,.063v.009q-.027.413-.056.826v0q-.179,2.574-.421,5.13l-4.978-.472c.6-6.278.9-12.678.9-19.021q0-.235,0-.469Zm-7.343,31.118,4.941.763q-.907,5.874-2.146,11.634h0l-.015.072v.006l-.015.07v.006l-.015.069,0,.008-.015.069,0,.007-.014.065,0,.013-.014.063,0,.013-.014.064,0,.012-.013.062,0,.017-.012.056-.005.023-.012.055,0,.021-.012.055,0,.021-.012.055-.005.023-.011.051-.006.027-.011.05-.006.026-.011.05-.006.027-.011.05-.006.028-.01.046-.007.033-.01.044-.007.033-.009.043-.008.034-.01.043-.008.034-.009.041-.008.037-.009.04-.008.037-.009.038-.009.039-.008.038-.009.042-.007.033-.011.047-.007.029-.011.049-.006.026-.012.053-.005.024-.013.058,0,.017-.014.06,0,.017-.014.063,0,.012-.015.064,0,.013-.017.073v0q-.625,2.74-1.323,5.453l-4.842-1.246C398.348,247.471,399.667,241.044,400.657,234.637Zm-7.172,30.342,4.76,1.531,0,.008-.015.048-.009.027-.015.046-.01.03-.015.045-.009.029-.015.046-.009.029-.015.047-.009.027-.015.047-.009.028-.016.048-.008.025-.015.046-.01.031-.014.042-.011.033-.013.039-.012.037-.012.037-.012.037-.012.036-.013.04-.011.033-.013.041-.011.032-.014.043-.01.03-.015.045-.009.028-.016.048-.008.023-.016.05-.009.026-.016.049-.008.024-.016.049-.008.026-.017.05-.007.02-.018.054-.007.021-.018.055-.006.018-.018.056-.006.018-.019.058,0,.01-.021.064,0,.011-.022.065,0,.005-.023.068,0,.008-.047.141v0q-2.819,8.438-6.337,16.525l-4.586-1.992C389.189,277.281,391.5,271.143,393.485,264.979Zm-11.857,28.836,4.46,2.26q-4.53,8.939-9.9,17.368l-4.217-2.686C375.453,305.29,378.7,299.59,381.628,293.816ZM365.4,320.441l4.052,2.929q-.732,1.013-1.476,2.016l-.013.018-.033.045-.013.018-.033.044-.014.019-.032.044-.016.022-.028.038-.024.032-.022.03-.026.035-.02.026-.027.036-.019.026-.029.039-.016.021-.032.043-.014.019-.032.043-.013.018-.032.043-.014.019-.035.046-.01.013-.037.049-.009.013-.039.052-.005.007-.041.055-.005.007q-3.15,4.2-6.5,8.223v0l-.043.051-.007.009-.038.045-.013.015-.035.041-.015.018-.035.042-.015.018-.033.039-.017.021-.032.038-.018.022-.03.036-.02.024-.03.036-.019.023-.029.034-.022.026-.027.032-.024.029-.023.028-.027.032-.023.028-.027.032-.022.026-.029.035-.02.024-.031.037-.017.02-.034.04-.016.019-.035.041-.013.016-.038.046-.011.012-.042.05-.006.007-.043.051-.008.01-.044.052-.005.006-.046.054,0,.005q-1.362,1.608-2.756,3.186l-3.748-3.31C357.5,330.815,361.6,325.69,365.4,320.441ZM345.21,344.217l3.548,3.523q-7.045,7.094-14.761,13.483l-3.188-3.852C335.8,353.241,340.644,348.815,345.21,344.217Zm-23.633,20.352,2.957,4.032,0,0q-6.444,4.727-13.263,8.952l0,0-.063.039,0,0-.061.038-.005,0-.06.037-.01.006-.057.035-.008,0-.058.036-.009.005-.06.037,0,0-.061.038-.008,0-.059.036-.007,0-.059.036-.009.005-.059.036-.007,0-.058.035-.012.007-.056.034-.01.006-.056.034-.012.008-.056.034-.008.005-.057.035-.012.007-.054.033-.013.008-.053.032-.015.009-.052.032-.014.008-.05.031-.018.011-.05.03-.015.009-.053.032-.013.008-.057.035-.007,0-.057.034-.012.007-.056.034-.01.006-.055.033-.013.008-.056.034-.009.006-.053.032-.015.009-.055.033-.01.006-.058.035-.009.006-.126.076-.008,0-.064.038h0l-.059.035-.009.005-.128.077-.006,0-.536.321-.011.007-.056.034-.008,0-.058.035-.012.007-.056.033-.009.005-.056.034-.02.012-.048.029-.015.009-.051.03-.02.012-.047.028-.022.013-.044.026-.006,0-2.549-4.3C310.875,372.021,316.349,368.4,321.577,364.568Zm-26.511,16.42,2.291,4.444q-2.352,1.213-4.74,2.366h0l-.139.067h0l-.069.033h0l-.066.032-.007,0-.063.03-.007,0-.063.03-.007,0-.064.031-.006,0-.06.029-.014.007-.056.027-.014.007-.056.027-.014.007-.055.026-.016.008-.051.024-.021.01-.051.024-.018.008-.051.025-.02.009-.052.025-.019.009-.049.023-.022.011-.049.023-.022.01-.047.022-.024.011-.045.021-.027.013-.039.018-.033.016-.036.017-.034.016-.036.017-.034.016-.038.018-.033.016-.034.016-.038.018-.032.015-.039.018-.03.014-.04.019-.031.015-.04.019-.026.012-.046.022-.022.011-.047.022-.023.011-.048.022-.022.01-.05.023-.018.008-.053.025-.018.008-.053.025-.016.008-.053.025-.018.008-.054.025-.01,0-.061.029-.005,0-.065.03-.006,0-.064.03-.006,0-.065.03h0q-5.266,2.447-10.695,4.6l-1.843-4.648C283.333,386.675,289.3,383.959,295.066,380.989ZM266.313,393.05l1.564,4.749-.379.124h0l-.072.023-.01,0-.063.02-.018.006-.057.019-.014,0-.059.019-.024.008-.048.016-.036.012-.036.012-.039.013-.037.012-.035.011-.039.013-.037.012-.038.012-.039.013-.034.011-.038.012-.039.012-.037.012-.035.011-.044.014-.03.01-.047.015-.026.008-.047.015-.028.009-.049.016-.024.008-.051.016-.024.008-.055.017-.017.006-.054.017-.022.007-.054.017-.018.006-.059.019-.015,0-.063.02-.009,0-.064.02-.012,0-.064.02-.009,0-.063.02-.012,0-.064.02-.009,0-.062.02-.014,0-.063.02-.009,0-.065.021-.009,0-.068.022h0l-.069.022-.007,0-.144.045h0l-.145.046h0q-8.02,2.506-16.313,4.359l-1.088-4.88C253.838,396.819,260.163,395.076,266.313,393.05Zm-30.289,7.387.8,4.936c-.848.137-1.693.268-2.545.4h-.01l-.069.01-.012,0-.065.01-.015,0-.064.009-.015,0-.062.009-.019,0-.059.009-.021,0-.055.008-.026,0-.053.008-.024,0-.053.008-.027,0-.051.007-.028,0-.049.007-.03,0-.049.007-.03,0-.047.007-.032,0-.047.007-.031,0-.046.007-.032,0-.047.007-.031,0-.045.006-.034,0-.044.006-.035,0-.041.006-.037.005-.04.006-.038.005-.036.005-.044.006-.027,0-.052.007-.017,0-.359.05-.011,0-.059.008-.019,0-.058.008-.02,0-.057.008-.021,0-.053.007-.026,0-.055.007-.022,0-.056.008-.022,0-.055.008-.024,0-.052.007-.026,0-.054.007-.023,0-.054.007-.025,0-.055.007-.022,0-.055.007-.024,0-.056.007-.021,0-.056.007-.021,0-.057.008-.021,0-.056.007-.021,0-.059.008-.016,0-.06.008-.02,0-.059.008-.018,0-.059.008-.018,0-.062.008h-.009l-.068.009h-.009l-.147.019h0l-.923.117h-.006l-.076.009h0l-.072.009h-.007l-.069.009h-.009l-.065.008-.015,0-.064.008-.013,0-.064.008-.014,0-.064.008-.014,0-.062.008-.017,0-.062.007-.014,0-.063.008-.015,0-.064.008h-.012l-.064.008-.015,0-.063.007-.015,0-.062.007-.017,0-.061.007-.016,0-.063.007-.015,0-.065.008h-.009l-.069.008h-.006l-1,.115h-.006l-.066.007-.014,0-.063.007-.015,0-.063.007-.016,0-.062.007-.017,0-.058.006-.022,0-.057.006-.021,0-.058.006-.021,0-.058.006-.022,0-.054.006-.026,0-.053.006-.025,0-.053.006-.025,0-.053.006-.026,0-.05.005-.03,0-.049.005-.029,0-.049.005-.03,0-.05.005-.03,0-.048.005-.033,0-.047.005-.029,0-.05.005-.029,0-.05.005-.03,0-.048.005-.034,0-.046,0-.03,0-.049.005-.029,0-.05.005-.037,0-.04,0-.046,0-.179.018h-.011l-.043,0-.038,0-.033,0-.046,0-.032,0-.048,0-.03,0-.049,0-.028,0-.053.005-.025,0-.054.005-.027,0L224.3,407l-.026,0-.052.005-.028,0-.053.005-.025,0-.055.005-.024,0-.057.006-.022,0-.058.006-.021,0-.06.006-.019,0-.06.006-.02,0-.06.006-.02,0-.059.006-.02,0-.063.006h-.016l-.065.006H223.4l-.066.006h-.013l-.07.007h-.008l-.075.007h0l-.077.007h0q-3.051.283-6.132.476l-.313-4.99C223.121,402.2,229.642,401.47,236.024,400.438Zm-50.58,1.709c6.436.595,13,.881,19.495.851l.023,5-.8,0h-3.441l-.178,0h-.557l-.088,0h-.016l-.159,0-.079,0h-.4l-.083,0-.081,0h-.02l-.159,0-.078,0h-.315l-.078,0h-.163l-.093,0-.092,0-.08,0h-.025l-.053,0h-.347l-.051,0H197.5l-.052,0h-.027l-.078,0-.085,0-.074,0-.078,0h-.028l-.05,0H197l-.05,0h-.029l-.051,0h-.027l-.052,0h-.028l-.052,0-.083,0-.1,0-.083,0-.08,0-.077,0h-.026l-.053,0h-.028l-.049,0H196.1l-.049,0h-.03l-.05,0h-.029l-.051,0h-.029l-.05,0-.093,0H195.7l-.16-.006-.077,0h-.03l-.048,0h-.03l-.049,0h-.031l-.048,0h-.03l-.047,0h-.033l-.046,0h-.032l-.048,0h-.031l-.049,0-.088,0h-.031l-.088,0-.086,0-.05,0h-.03l-.047,0h-.033l-.047,0h-.031l-.047,0H194.3l-.047,0h-.032l-.079,0-.043,0-.08,0-.109-.005-.035,0-.044,0-.077,0-.077,0-.078,0-.078,0-.078,0-.08,0-.037,0-.044,0-.032,0-.053,0h-.026l-.077,0h-.024l-.054,0-.031,0-.047,0-.077,0-.036,0-.078,0-.045,0-.033,0-.045,0-.075,0-.08,0-.036,0-.048,0-.03,0-.076,0-.031,0-.047,0-.036,0-.043,0-.033,0-.045,0-.078,0-.078,0-.079,0-.033,0-.045,0-.078,0-.075,0-.038,0-.075,0-.076,0-.042,0-.037,0-.042,0-.033,0-.043,0-.036,0-.04,0-.078,0-.037,0-.042,0-.032,0-.045,0-.031,0-.047,0-.027,0-.05,0h-.018l-.121-.008h-.011l-.049,0-.028,0-.046,0-.03,0-.048,0-.029,0-.046,0-.031,0-.047,0-.029,0-.047,0-.03,0-.049,0-.026,0-.05,0-.025,0-.255-.017-.023,0-.054,0h-.021l-.052,0-.026,0-.049,0-.026,0-.049,0-.029,0-.049,0-.024,0-.053,0-.022,0-.054,0h-.018l-.059,0h0l-.283-.021h-.011l-.062,0h-.013l-.059,0h-.018l-.058,0h-.018l-.056,0h-.02l-.059,0h-.011l-.065,0h0l-.43-.033h-.014l-.06,0h-.015l-.061,0h-.014l-.061,0H187.7l-.063-.005h-.011l-.065-.005h-.006l-.436-.035h0l-.07-.006h0l-.068-.006h-.007l-.067-.006h-.007l-.068-.006h0l-.658-.056h0q-.587-.051-1.174-.105Zm-30.728-5.3c6.271,1.6,12.7,2.9,19.111,3.877l-.752,4.943q-3.735-.568-7.425-1.27h0l-.076-.014h0l-.075-.014h0l-.15-.029h0l-.072-.014h-.005l-.071-.014h-.008l-.069-.013h-.008l-.068-.013-.01,0-.067-.013-.009,0-.067-.013-.011,0-.067-.013-.009,0-.066-.013-.015,0-.061-.012-.017,0-.06-.012-.017,0-.06-.012-.017,0-.058-.011-.022,0-.055-.011-.021,0-.057-.011-.02,0-.056-.011-.021,0-.056-.011-.022,0-.053-.011-.028-.006-.048-.01-.032-.006-.045-.009-.033-.007-.044-.009-.034-.007-.043-.009-.034-.007-.043-.009-.034-.007-.042-.009-.035-.007-.043-.009-.036-.007-.041-.008-.042-.008-.035-.007-.048-.01-.029-.006-.054-.011-.023,0-.057-.012-.02,0-.073-.015h0l-.311-.064h-.006l-.072-.015h0l-.073-.015h0l-.075-.015-.008,0-.07-.014h-.006l-.071-.015h-.007l-.07-.015-.014,0-.064-.013-.012,0-.066-.014-.009,0-.069-.014h-.005l-.072-.015-.008,0-.069-.015-.009,0-.068-.014-.011,0-.066-.014-.012,0-.064-.013-.017,0-.061-.013-.014,0-.064-.014-.012,0-.066-.014-.009,0-.068-.014-.011,0-.066-.014-.011,0-.066-.014-.012,0-.065-.014-.013,0-.064-.014-.013,0-.066-.014-.009,0-.068-.015-.009,0-.07-.015h0l-.071-.015-.009,0-.068-.015-.009,0-.068-.015-.01,0-.067-.015-.01,0-.065-.014-.014,0-.065-.014-.01,0-.067-.015-.01,0-.07-.015h-.006l-.071-.015-.007,0-.073-.016h0l-.074-.016h0l-.074-.016h0l-.072-.016h-.006q-1.006-.222-2.006-.454h0l-.151-.035-.014,0-.063-.015-.012,0-.064-.015-.015,0-.062-.014-.018,0-.056-.013-.026-.006-.051-.012-.025-.006-.051-.012-.026-.006-.051-.012-.028-.007-.046-.011-.034-.008-.043-.01-.034-.008-.04-.009-.037-.009-.04-.009-.038-.009-.036-.008-.043-.01-.033-.008-.043-.01-.034-.008-.042-.01-.035-.008-.043-.01-.03-.007-.047-.011-.03-.007-.046-.011-.029-.007-.047-.011-.029-.007-.05-.012-.023-.005-.055-.013-.021-.005-.055-.013-.02,0-.055-.013-.023-.005-.055-.013-.017,0-.061-.015-.013,0-.064-.015-.01,0-.067-.016-.008,0-.071-.017h0q-1.019-.248-2.033-.507Zm-29.51-10.059c5.949,2.568,12.092,4.867,18.261,6.835l-1.519,4.764q-6.763-2.157-13.311-4.764l-.017-.007-.121-.048-.024-.009-.059-.024-.012,0-.033-.013-.113-.045-.008,0q-2.53-1.012-5.025-2.09ZM97.637,372.221c5.476,3.47,11.184,6.706,16.965,9.618l-2.249,4.465-.033-.017-.027-.014-.039-.02-.031-.015-.042-.021-.026-.013-.046-.023-.023-.012-.049-.025-.02-.01-.049-.025-.02-.01-.052-.026-.016-.008-.055-.028-.014-.007-.057-.029-.012-.006-.056-.028-.014-.007-.057-.029-.01-.005-.06-.031-.008,0-.063-.032-.006,0-.063-.032-.006,0-.065-.033h0l-.067-.034h0l-.067-.034h0l-.065-.033-.006,0-.066-.034h0l-.068-.035h0q-4.019-2.062-7.931-4.294h0l-.061-.035-.007,0-.059-.034-.008,0-.056-.032-.012-.007-.051-.029-.017-.01-.048-.028-.019-.011-.049-.028-.019-.011-.044-.025-.025-.014-.041-.023-.027-.016-.038-.022-.029-.017-.038-.022-.029-.017-.036-.021-.032-.019-.033-.019-.035-.02-.031-.018-.036-.021-.033-.019-.034-.02-.031-.018-.036-.021-.03-.018-.037-.021-.029-.017-.038-.022-.029-.017-.039-.023-.025-.015-.042-.025-.025-.015-.042-.024-.025-.014-.042-.025-.026-.015-.041-.024-.024-.014-.043-.025-.025-.014-.043-.025-.023-.013-.044-.026-.024-.014-.044-.026-.021-.012-.047-.028-.02-.012-.049-.028-.017-.01-.049-.029-.018-.011-.05-.029-.015-.009-.052-.03-.016-.009-.054-.032-.01-.006-.056-.033-.013-.007-.058-.034-.007,0-.059-.035-.009-.005-.063-.037h0l-.063-.037-.005,0q-2.823-1.664-5.587-3.416Zm-24.959-18.7c4.868,4.279,10,8.366,15.26,12.148l-2.919,4.059-.046-.033,0,0-.056-.041-.007-.005-.057-.041,0,0-.056-.041-.007,0-.056-.04-.007,0-.054-.039-.009-.006-.055-.04-.006,0-.056-.04-.007,0-.055-.04-.008-.006-.051-.037-.013-.009-.052-.038-.009-.006-.053-.038-.009-.007-.054-.039-.009-.006-.052-.038-.011-.008-.052-.038-.009-.007-.052-.038-.011-.008-.052-.038-.009-.007-.05-.036-.015-.011-.048-.035-.012-.009-.05-.037-.011-.008-.052-.038-.01-.007-.052-.038-.012-.008-.052-.038-.007,0-.055-.04-.008-.006-.055-.04-.007,0-.054-.039-.012-.009-.051-.038-.006,0-.055-.041-.007-.005-.117-.086,0,0-.735-.544h0l-.118-.088-.006,0-.057-.043,0,0-.046-.035-.018-.013-.043-.032-.019-.014-.042-.031-.021-.015-.041-.031-.02-.015-.037-.027-.028-.021-.032-.024-.029-.021-.033-.025-.029-.022-.034-.025-.027-.02-.035-.026-.028-.021-.035-.026-.026-.02-.035-.026-.028-.021-.035-.026-.026-.019-.035-.026-.029-.022-.033-.025-.028-.021-.034-.026L81.318,367l-.033-.025-.028-.021-.033-.025-.03-.023-.031-.023-.031-.023-.031-.023-.032-.024-.03-.023-.03-.023-.031-.023-.033-.025-.027-.02-.035-.027-.026-.02-.036-.027-.026-.02-.034-.026-.027-.021-.036-.027-.025-.019-.037-.028-.024-.018-.039-.03-.023-.017-.039-.03-.022-.017-.041-.032-.02-.015-.042-.032-.02-.015-.044-.034-.017-.013-.046-.035-.016-.012-.049-.037-.012-.01-.053-.041-.007-.006-.058-.045,0,0q-5.49-4.206-10.682-8.769ZM50.927,331.168c4.142,4.98,8.58,9.816,13.189,14.371L60.6,349.1q-2.713-2.681-5.321-5.458l0,0-.051-.055h0l-.051-.054,0,0-.05-.053,0,0-.047-.05-.007-.007-.046-.049-.005-.006-.047-.05-.006-.006-.047-.05-.005-.006-.045-.048-.01-.01-.043-.046-.01-.01-.042-.045-.011-.012-.042-.045-.011-.012-.04-.043-.015-.016-.039-.042-.011-.011-.042-.045-.01-.011L54.5,342.8l-.01-.011-.041-.045-.012-.013-.041-.044-.01-.011-.042-.045-.012-.013-.041-.044-.01-.01-.042-.045-.012-.013-.04-.044-.01-.011-.041-.045-.011-.012-.041-.045-.008-.008-.044-.048-.011-.011-.042-.045-.008-.009-.044-.048,0,0-.295-.321-.015-.016-.034-.037-.018-.02-.032-.035-.02-.022-.031-.034-.02-.022-.028-.031-.025-.028-.026-.028-.026-.028-.026-.028-.027-.03-.025-.027-.026-.029-.025-.028-.028-.031-.021-.023-.031-.034-.021-.023-.032-.035-.02-.022-.032-.035-.018-.02-.035-.039-.016-.017-.036-.039-.018-.019-.035-.038-.018-.02-.033-.036-.02-.022-.033-.037-.018-.02-.033-.037-.019-.021-.034-.038-.018-.02-.034-.037-.018-.02-.036-.04-.014-.016-.037-.041-.016-.018-.036-.04-.016-.018-.035-.039-.017-.019-.036-.04-.016-.018-.036-.04-.016-.018-.037-.041-.015-.016-.037-.041-.014-.016-.04-.044-.012-.013-.039-.044-.013-.014-.038-.042-.014-.016L52,340.056l-.014-.016L51.942,340l-.013-.015-.04-.044-.011-.013-.043-.048-.008-.009-.047-.052,0-.005-.051-.057h0q-.442-.5-.881-.994h0l-.051-.058h0l-.05-.057,0,0-.047-.054,0,0-.048-.054,0,0-.049-.056h0l-.049-.056,0,0-.048-.054,0,0-.047-.053-.006-.007-.045-.052-.006-.007-.044-.05-.009-.01-.044-.05,0-.005-.046-.053-.005-.006L50.176,338l0,0-.047-.054,0,0-.048-.056v0l-.049-.056,0,0-.049-.056,0,0-.047-.055-.005-.006-.047-.055,0,0-.05-.058h0l-.1-.118h0q-.716-.827-1.422-1.66l0,0-.048-.056h0l-.05-.059,0,0-.049-.058h0l-.048-.057-.006-.007-.045-.053,0-.006-.045-.053-.007-.008-.044-.052-.006-.007-.042-.049-.012-.014-.039-.046-.01-.012-.04-.048-.009-.011-.042-.05-.008-.01-.04-.047-.012-.014-.039-.046-.011-.013-.039-.046-.011-.013-.04-.048-.009-.011-.039-.046-.013-.015-.039-.046-.01-.012-.04-.048-.01-.012-.042-.05-.008-.009-.04-.048-.011-.013-.04-.047-.01-.012-.04-.048-.01-.012-.039-.047-.011-.014-.037-.045-.01-.012ZM32.918,305.708c3.314,5.562,6.944,11.027,10.791,16.246l-4.025,2.967Q34.8,318.3,30.451,311.277l0,0-.038-.062L30.4,311.2l-.034-.055-.007-.012-.033-.054-.01-.016-.03-.048-.014-.023-.026-.042-.017-.027-.024-.039-.016-.026-.025-.041-.017-.027-.023-.037-.019-.031-.02-.033-.022-.036-.018-.029-.022-.036-.018-.03-.024-.039-.016-.025-.026-.042-.013-.022-.029-.047-.011-.017-.029-.047-.013-.02-.029-.047-.01-.017-.031-.05-.009-.015-.032-.053-.007-.012-.033-.053-.007-.012-.035-.057,0-.006-.036-.059,0-.007-.037-.06,0,0-.037-.061,0-.006c-.306-.5-.607-1-.909-1.511ZM19.112,277.75c2.4,6.012,5.13,11.977,8.114,17.731l-4.439,2.3-.187-.362,0,0-.034-.066h0l-.035-.067,0-.005-.033-.064,0-.006-.031-.06-.011-.021-.024-.048-.014-.026-.021-.041-.017-.033-.019-.037-.019-.037-.015-.03-.022-.043-.014-.026-.023-.045-.012-.023-.023-.046-.012-.024-.029-.056-.005-.011-.033-.065,0,0q-4.21-8.257-7.678-16.932ZM9.873,247.972c1.425,6.32,3.183,12.641,5.223,18.786l-4.745,1.576q-1.909-5.75-3.483-11.647h0l-.02-.074v0l-.02-.074h0l-.02-.074v0l-.019-.071v-.006l-.019-.072v0l-.019-.073v0l-.019-.073v0l-.019-.071,0-.006-.018-.069,0-.007-.018-.069v-.006l-.019-.072v0l-.018-.07,0-.008-.018-.069,0-.006-.018-.069,0-.007-.018-.069,0-.007-.017-.066,0-.011-.017-.066,0-.009-.017-.066,0-.009-.017-.066,0-.011-.016-.063,0-.015-.016-.062,0-.014-.016-.062,0-.013-.016-.063,0-.013-.015-.06,0-.018-.015-.058,0-.018-.015-.057,0-.019-.015-.057,0-.019-.014-.054-.006-.025L6.3,254.5l-.006-.025-.013-.051-.006-.025-.013-.052-.006-.025-.012-.048-.008-.03-.012-.047-.007-.03-.012-.046-.008-.031-.012-.046-.008-.031-.011-.043-.009-.035-.01-.042-.009-.035-.01-.042-.008-.033-.011-.044-.008-.033-.01-.041-.009-.037-.01-.04-.009-.036-.01-.039-.009-.037-.01-.039-.01-.041-.008-.033L6,253.321l-.008-.033-.011-.044-.008-.032-.011-.044-.008-.033-.011-.046-.007-.029-.012-.048-.007-.03-.012-.048-.007-.028-.012-.049-.007-.027-.013-.055,0-.019L5.85,252.7l-.005-.021-.014-.056-.005-.021-.013-.054-.006-.024-.014-.058,0-.016-.015-.062,0-.015-.016-.066,0-.01-.016-.066,0-.012-.036-.148v0l-.037-.153h0c-.228-.948-.449-1.893-.664-2.846ZM5.425,217.109c.421,6.478,1.166,13,2.213,19.377L2.7,237.3q-.841-5.12-1.425-10.324h0l-.008-.076v0l-.008-.072v-.009l-.008-.07v-.008l-.008-.068v-.011l-.007-.066v-.014l-.007-.063,0-.016-.007-.064v-.014l-.007-.063,0-.018-.006-.06,0-.02-.006-.057,0-.023-.006-.056,0-.022-.006-.055,0-.026-.006-.052,0-.028-.005-.05,0-.028-.006-.052,0-.024-.006-.054,0-.029-.005-.049,0-.033,0-.045,0-.038,0-.041,0-.041,0-.037-.008-.072v-.006l-.017-.16v-.01l-.007-.07v-.007l-.007-.072,0-.016-.007-.064,0-.016-.006-.062,0-.021-.006-.059,0-.018-.006-.062,0-.017-.006-.064v-.015l-.007-.065v-.015l-.007-.065v-.014l-.007-.066v-.013L1,224.3v-.01l-.007-.069v-.012l-.007-.069v-.01l-.007-.071v-.008l-.007-.073v-.006L.958,223.9v0C.75,221.745.576,219.6.435,217.433ZM.831,185.461l4.98.449C5.273,191.883,5,197.969,5,204c0,.467,0,.941,0,1.408l-5,.035q0-.314,0-.628c0-.007,0-.01,0-.017,0-.023,0-.046,0-.069,0-.007,0-.021,0-.027v-.059c0-.007,0-.025,0-.032s0-.036,0-.053,0-.022,0-.036v-.05c0-.014,0-.024,0-.038v-.048c0-.014,0-.025,0-.038V204.3c0-.007,0-.033,0-.04s0-.031,0-.047,0-.025,0-.039,0-.035,0-.052v-.035q0-.043,0-.086c0-.028,0-.051,0-.079V203.9c0-.021,0-.035,0-.055s0-.02,0-.03,0-.036,0-.049,0-.019,0-.029,0-.035,0-.049,0-.022,0-.032,0-.034,0-.048,0-.02,0-.03,0-.037,0-.05,0-.019,0-.029,0-.035,0-.056,0-.015,0-.022c0-.027,0-.047,0-.074,0-.006,0-.013,0-.02s0-.043,0-.063v-.025c0-.021,0-.032,0-.052s0-.02,0-.031v-.049c0-.011,0-.021,0-.032s0-.032,0-.046v-.081c0-.01,0-.02,0-.03s0-.037,0-.051,0-.018,0-.028v-.058c0-.006,0-.014,0-.02,0-.027,0-.05,0-.078,0-.008,0-.015,0-.023s0-.034,0-.055,0-.02,0-.031,0-.028,0-.048,0-.022,0-.032,0-.033,0-.047,0-.021,0-.032,0-.032,0-.045v-.034c0-.014,0-.032,0-.046v-.031c0-.014,0-.034,0-.048v-.032c0-.021,0-.033,0-.053s0-.016,0-.024c0-.027,0-.049,0-.077,0-.008,0-.015,0-.023s0-.036,0-.057v-.025c0-.021,0-.032,0-.053s0-.02,0-.031v-.127c0-.011,0-.021,0-.031V201.6c0-.014,0-.034,0-.047v-.109c0-.027,0-.049,0-.076v-.078c0-.012,0-.024,0-.036s0-.029,0-.043,0-.023,0-.036v-.121c0-.012,0-.024,0-.036s0-.029,0-.043,0-.024,0-.035v-.622c0-.012,0-.024,0-.036s0-.03,0-.044v-.112c0-.027,0-.046,0-.074v-.35c0-.014,0-.026,0-.04v-.8l0-.111v-.518c0-.007,0,0,0,0,0-.066,0-.133.006-.2v-.4c0-.086.005-.171.008-.257v-.018l0-.053v-.024l0-.051V197.2l0-.051v-.025l0-.051v-.024l0-.052v-.021q0-.129.009-.259V196.7l0-.055v-.02l0-.054v-.024l0-.052v-.022l0-.054v-.02l0-.057v-.006c0-.094.007-.187.011-.281v-.006l0-.061v-.015l0-.06V195.9l0-.059v-.015l0-.062v0c0-.119.01-.239.015-.358v0l0-.067v-.008l0-.063v-.014l0-.062v-.009l0-.067h0q.009-.215.019-.429v-.007l0-.067v0l0-.07h0Q.424,189.97.831,185.461Zm5.355-31.514,4.848,1.223c-1.583,6.275-2.872,12.708-3.832,19.12l-4.945-.74q.52-3.476,1.157-6.913v-.007l.013-.071v-.007l.013-.07,0-.009.013-.07v-.008l.013-.069,0-.012.012-.066,0-.012.012-.065,0-.013.012-.065,0-.015.011-.06,0-.021.011-.056,0-.023.01-.054,0-.024.01-.054,0-.025.01-.051.005-.028.009-.049.005-.028.009-.05.005-.027.009-.049.006-.031.008-.042.007-.037.008-.041.007-.036.008-.042.007-.034.009-.044.007-.034.008-.04.007-.039.007-.038.008-.039.007-.038.007-.038.008-.041.007-.037.007-.036.008-.042.007-.035.008-.041.007-.036.008-.042.007-.035.008-.043.006-.033.009-.045.006-.032.009-.045.006-.032.009-.046.005-.027.01-.051,0-.021.011-.058,0-.015.012-.062,0-.018.012-.059,0-.016.012-.061,0-.008q.144-.724.294-1.446h0l.016-.075h0l.047-.228v0l.016-.074v0l.016-.075v0l.016-.075v0l.015-.072v-.005l.015-.073v0l.048-.226v0l.016-.074v0l.016-.074v0l.016-.075h0l.016-.073v0q.358-1.676.743-3.342h0l.017-.073v0l.016-.068,0-.01.015-.065,0-.011.014-.061,0-.017.014-.06,0-.016.014-.06,0-.017.014-.06,0-.016.014-.059,0-.018.014-.058,0-.017.013-.057,0-.021.013-.055.005-.021.013-.053.006-.025.012-.051.006-.024.012-.052.006-.025.012-.051.006-.025.012-.05.007-.028.011-.047.007-.03.011-.045.008-.034.01-.041.009-.036.009-.038.01-.042.008-.033.01-.043.008-.034.01-.043.008-.033.01-.043.008-.033.011-.045L5.68,156l.011-.046.007-.03.012-.05.006-.024.014-.056,0-.019.015-.064,0-.011.016-.066,0-.011.017-.068,0-.008.017-.071v0C5.932,154.961,6.059,154.451,6.186,153.947Zm10.242-30.283,4.6,1.971c-2.554,5.955-4.839,12.1-6.791,18.277L9.464,142.4q2.452-7.75,5.5-15.227v0l.028-.069,0,0,.026-.065.015-.036.014-.035.025-.061,0-.009.023-.055.007-.018Q15.753,125.236,16.427,123.664ZM31.3,95.367l4.23,2.666c-3.457,5.484-6.679,11.2-9.578,16.988l-4.471-2.239q4.151-8.29,9.018-16.134l0,0,.039-.063,0,0,.038-.061,0-.005.038-.061,0,0,.037-.059.005-.008.036-.057,0-.008.035-.056.007-.011.033-.053.009-.014.031-.049.012-.019.029-.047.011-.018L30.9,96l.012-.019.029-.047.011-.018.029-.046.013-.021.028-.044.013-.021.027-.042.016-.025.025-.04.015-.024.025-.04.017-.027.024-.038.017-.028.023-.037.018-.028.024-.038.017-.027ZM50.407,69.738,54.17,73.03C49.9,77.909,45.827,83.053,42.058,88.319l-4.066-2.91q1.456-2.035,2.961-4.033l0,0,.045-.06h0l.046-.061,0,0,.045-.059,0,0,.044-.058.006-.008.042-.055,0-.006L41.234,81,41.24,81l.041-.054.006-.008.039-.051.011-.014.037-.048.01-.013.036-.048.012-.016.036-.047.011-.015.035-.046.013-.017.035-.045.012-.016.034-.045.013-.017.033-.044.015-.02.03-.039.018-.024.03-.039.017-.022.03-.04.017-.022.03-.04.017-.023.029-.038.018-.023.031-.041.016-.02.032-.042L42,80l.031-.041.017-.022.027-.035.021-.028.025-.033.022-.029.025-.033.021-.028.026-.033.022-.029.022-.028.026-.034.02-.026.027-.036.02-.026.027-.035.019-.025.029-.038.007-.01.505-.651.005-.007.039-.05.009-.011.041-.053.005-.007.042-.054,0-.006.038-.048.01-.013.038-.049.008-.011.04-.051.007-.009.04-.051.008-.01.037-.047.012-.015.036-.046.012-.015.036-.045.012-.015.036-.046.012-.015.033-.042.016-.021.032-.04.015-.02.034-.043.013-.016.037-.046.011-.013.035-.045.013-.017.036-.046.01-.013.037-.046.012-.015.036-.046.011-.014.036-.045.012-.016.037-.046.01-.012.039-.049.008-.01.041-.052.005-.007.041-.051.009-.012.039-.049.008-.009.04-.05.008-.01.04-.05.008-.01.038-.048.012-.015.037-.047.008-.01.04-.05.007-.009.042-.053,0,0,.043-.054.007-.009.042-.053,0,0,.045-.056,0,0,.093-.116,0,0c.255-.319.506-.63.763-.948l0,0,.093-.115,0,0,.046-.057,0,0,.041-.051.009-.01.039-.048.009-.011.037-.045.013-.016.035-.043.014-.017.032-.039.019-.023.029-.036.019-.024.029-.036.02-.024.03-.037L45.959,75l.03-.037.02-.024.029-.035.02-.025.028-.034.022-.027.026-.032.022-.027.026-.032.024-.029.025-.031.023-.028.025-.031.025-.03.025-.03.023-.028.026-.031.025-.031.023-.028.027-.033.021-.026.03-.037.018-.022.031-.038.017-.021.034-.041.015-.018.033-.041.016-.02.033-.04.017-.02.032-.039.017-.021.034-.041.015-.018.035-.042.014-.017.037-.045.012-.014.039-.047.01-.012.043-.052.006-.007.044-.052.006-.007.043-.052.007-.008.044-.053.005-.006Q48.762,71.618,50.407,69.738ZM73.266,47.39l3.206,3.837c-4.971,4.154-9.8,8.6-14.34,13.222l-3.564-3.507c.393-.4.786-.8,1.182-1.192h0Q64.4,55.1,69.339,50.757l.006-.005.051-.045L69.4,50.7l.047-.041.012-.01.037-.032.023-.021.026-.023.033-.029.024-.021.034-.03.025-.022.033-.029.025-.021.035-.031.019-.016.041-.036.017-.015.041-.036.018-.015.041-.035.018-.015.043-.038L70,50.175l.049-.042.009-.008.05-.044.007-.006.051-.044.01-.009.05-.044.006-.005.053-.046.005,0,.054-.047,0,0,.056-.048,0,0Q71.827,48.593,73.266,47.39ZM99.321,28.869l2.569,4.289c-5.554,3.327-11.011,6.97-16.22,10.829l-2.976-4.018.232-.171,0,0,.06-.044h0l.06-.045h0l.122-.09h0l.122-.09,0,0,.059-.044,0,0,.058-.042,0,0,.059-.044h0l.061-.044h0l.061-.045h0l.061-.045h0l.122-.09h0l.06-.044h0l.059-.043.005,0,.059-.043h0l.06-.044,0,0c.785-.572,1.569-1.134,2.363-1.695l0,0,.124-.087h0l.062-.044h0l.06-.042,0,0,.121-.085.006,0,.056-.039.008-.006.052-.037.012-.009.052-.036.01-.007.052-.036.012-.009.05-.035.013-.009.048-.034.016-.011.049-.034.013-.009.051-.035.013-.009.049-.034.014-.01.048-.033.017-.012.047-.033.014-.01.049-.034.015-.01.048-.033.016-.011.047-.033.017-.012.047-.033.014-.01.049-.034.015-.011.047-.032.019-.013.043-.03.022-.016.042-.029.02-.014.044-.031.019-.013.044-.03.021-.014.042-.029.022-.015.043-.03L88.243,36l.048-.033.016-.011.048-.033.016-.011.047-.032.019-.013.045-.031.014-.01.05-.035.01-.007.053-.037.01-.007.053-.036.014-.01.05-.034.005,0,.122-.083.007,0,.056-.038.014-.01.413-.282.019-.013.034-.023.03-.021.034-.023.03-.02.038-.026.025-.017.038-.026.027-.018.031-.021.034-.023.031-.021.032-.022.034-.023.03-.02.034-.023.031-.021.027-.018.039-.026.026-.017.038-.026.027-.018.037-.025.029-.019.036-.024.027-.018.037-.025.03-.02.034-.023L90.3,34.6l.033-.022.032-.021.034-.023.028-.019.038-.025.027-.018.036-.024.029-.02.034-.023.032-.021.032-.022.031-.021.034-.022.032-.021.032-.021.033-.022.03-.02.036-.024.029-.019.033-.022.034-.022.031-.02.033-.022.031-.021.032-.021.035-.023.029-.019.035-.023.03-.02.035-.024.028-.019.035-.024.029-.02.035-.023.031-.02.032-.021.033-.022.034-.022.029-.019.036-.024.029-.02.035-.023.031-.021.032-.021.032-.021.034-.022.029-.019.035-.023.028-.019.037-.024.03-.02.033-.022.033-.022.033-.022.03-.02.034-.023.03-.019.036-.024.027-.018.037-.024.028-.018.038-.025.02-.013.046-.03.013-.008.052-.034.007,0,.056-.037.018-.012.626-.408h0l.121-.079.008-.005.059-.038,0,0,.056-.036.009-.006.06-.039,0,0,.055-.036.011-.007.055-.036.009-.006.054-.035.012-.007.057-.037.007,0,.054-.035.012-.008.054-.035.009-.006.056-.036.009-.006.059-.038,0,0,.057-.037.01-.006.058-.037.005,0,.059-.038.006,0,.061-.039,0,0,.062-.039,0,0,.063-.04h0l.063-.04h0q2.421-1.544,4.886-3.021Zm28.63-14.222,1.865,4.639C123.81,21.7,117.85,24.445,112.1,27.442l-2.312-4.433q2.347-1.224,4.729-2.389l0,0,.067-.033h0l.067-.033.011-.006.059-.029.007,0,.061-.029.021-.01.05-.025.015-.008.054-.026.018-.009.054-.026.012-.006.056-.027.02-.009.051-.025.017-.008.052-.025.022-.011.048-.023.024-.012.044-.021.029-.014.043-.021.024-.012.045-.022.024-.012.047-.023.022-.011.046-.022.029-.014.042-.02.029-.014.039-.019.033-.016.038-.018.035-.017.032-.016.041-.02.03-.014.04-.019.029-.014.04-.019.03-.014.042-.02.026-.012.044-.021.028-.013.042-.02.027-.013.044-.021.026-.013.046-.022.021-.01.048-.023.024-.011.046-.022.024-.011.045-.022.025-.012.048-.023.02-.009.053-.025.017-.008.055-.026.014-.007.055-.026.016-.007.056-.026.012-.006.059-.028.011-.005.059-.028.011-.005.057-.027.015-.007.056-.026.013-.006.059-.028.011-.005.06-.028.009,0,.061-.029.009,0,.064-.03,0,0,.066-.031.005,0,.065-.03,0,0,.064-.03.008,0,.064-.03h0l.067-.031h0l.067-.031h0l.068-.031h0q4.87-2.265,9.874-4.277ZM158.46,5.1l1.112,4.875c-6.316,1.44-12.633,3.213-18.774,5.268L139.211,10.5c2.651-.887,5.336-1.725,8.035-2.5h0l.073-.021h0l.072-.021.009,0,.066-.019.012,0,.063-.018.015,0,.061-.018.012,0,.063-.018.015,0,.06-.017.02-.006.055-.016.024-.007.051-.015.024-.007L148,7.783l.025-.007.049-.014.03-.008.045-.013.034-.01.041-.012.033-.009L148.3,7.7l.034-.01.041-.012.035-.01.04-.011.039-.011.036-.01.038-.011.038-.011.037-.01.039-.011.036-.01.039-.011.037-.01.038-.011.038-.011.036-.01.041-.012.034-.009.041-.011.035-.01.044-.012.031-.009.044-.012.031-.009.045-.012.03-.008.046-.013.029-.008.049-.014.026-.007.049-.014.027-.007.049-.014.026-.007.05-.014.026-.007.05-.014.025-.007.05-.014.026-.007.05-.014.026-.007.049-.013.027-.007L150,7.222l.023-.006.053-.015L150.1,7.2l.053-.015.022-.006.054-.015.021-.006.058-.016.016,0,.059-.016.017,0,.059-.016.016,0,.059-.016.016,0,.062-.017.013,0,.063-.017.013,0,.063-.017.012,0L150.842,7l.013,0,.063-.017.012,0,.064-.017.012,0,.063-.017.013,0,.062-.017.014,0,.062-.017.012,0,.064-.017.011,0,.064-.017.011,0,.064-.017.011,0,.066-.018.008,0,.068-.018.007,0,.07-.019h0l.071-.019h0l.073-.019h0l.075-.02h0l.075-.02h0l.074-.019h0l.15-.039h0Q155.317,5.819,158.46,5.1ZM190.088.467l.336,4.989c-6.477.436-12.994,1.2-19.372,2.258l-.822-4.932q1.681-.28,3.371-.533h0l.153-.023h0l.076-.011h0l.074-.011h0l.074-.011h0q.572-.084,1.145-.166h.009l.066-.009.012,0,.065-.009.012,0,.065-.009.013,0,.061-.009.017,0,.059-.008.019,0,.058-.008.02,0,.058-.008.02,0,.054-.008.026,0,.053-.007.025,0,.052-.007.026,0,.051-.007.027,0,.049-.007.029,0,.05-.007.027,0,.05-.007.028,0,.05-.007.029,0,.047-.006.033,0,.047-.006.03,0,.047-.006.032,0,.047-.006.031,0,.046-.006.033,0,.047-.006.03,0,.048-.006.032,0,.048-.006.032,0,.045-.006.036,0,.044-.006.027,0,.05-.007.031,0,.055-.007.148-.019.036,0,.044-.006.032,0,.046-.006.031,0,.049-.006.03,0,.047-.006.035,0,.045-.006.032,0,.046-.006.034,0,.046-.006.035,0,.041-.005.039,0,.042-.005.034,0,.045-.006.031,0,.049-.006.031,0,.046-.006.034,0,.045-.006.034,0,.044-.006.034,0,.047-.006.032,0,.046-.006.033,0,.048-.006.031,0,.048-.006.029,0,.052-.006.027,0,.05-.006.029,0,.051-.006.028,0,.051-.006.027,0,.054-.007.025,0,.054-.007.025,0,.058-.007.02,0,.066-.008h.013l.069-.008h.01l.075-.009h0l.559-.066h0l.075-.009h.012l.067-.008.014,0,.064-.007.018,0,.061-.007.021,0,.058-.007.024,0,.056-.006.021,0,.058-.007.022,0,.057-.006.023,0,.056-.006.025,0,.055-.006.022,0,.057-.006.023,0,.056-.006.022,0,.056-.006.024,0,.056-.006.021,0,.06-.007.02,0,.06-.007.02,0,.058-.006.023,0,.058-.006.02,0,.06-.007.02,0,.061-.007.018,0,.061-.007.019,0,.071-.008h.007l.076-.008h0l.8-.084h.01l.071-.007h.009l.07-.007.016,0,.064-.007.017,0,.062-.006.02,0,.061-.006.018,0,.061-.006.019,0,.061-.006.02,0,.059-.006.02,0,.061-.006.019,0,.061-.006.019,0L183.7,1l.017,0,.062-.006.018,0,.063-.006.017,0,.062-.006.018,0,.063-.006.017,0L184.1.959l.016,0,.068-.007h.011l.069-.007h.011l.071-.007h.009l.074-.007h.006l1.045-.1h0l.076-.007h.007l.072-.006h.012l.068-.006h.014L185.8.8h.012l.067-.006h.016l.064-.006h.015l.064-.006.017,0,.063-.005h.016L186.2.766h.015l.066-.006h.013l.065-.006h.017l.064-.005h.016l.064-.005h.018L186.6.732h.015l.065-.005h.016l.066-.006h.014l.067-.006h.014l.07-.006h.009L187,.7h.011l.077-.006h0L187.98.62h.005l.076-.006h.006l.074-.006h.012L188.22.6h.013l.065,0,.021,0,.06,0,.02,0,.059,0,.022,0,.06,0h.019l.059,0,.024,0,.057,0,.022,0,.058,0,.022,0,.06,0h.019l.06,0,.021,0,.06,0h.019l.061,0h.019l.063,0h.017l.061,0,.022,0,.061,0h.017l.065,0h.015l.068,0h.013l.065,0h.017l.069,0h.011l.076-.005h0ZM204,0V5c-.623,0-1.254,0-1.876.009l-.046-5,.381,0h.142l1.064,0H204Z" transform="translate(425 219)" fill="#9184f6" opacity="0.12"/></g></svg>