<svg xmlns="http://www.w3.org/2000/svg" xmlns:xlink="http://www.w3.org/1999/xlink" width="550" height="467" viewBox="0 0 550 467"><defs><filter id="a" x="0" y="0" width="550" height="401" filterUnits="userSpaceOnUse"><feOffset dy="3" input="SourceAlpha"/><feGaussianBlur stdDeviation="5" result="b"/><feFlood flood-color="#07060a" flood-opacity="0.18"/><feComposite operator="in" in2="b"/><feComposite in="SourceGraphic"/></filter><linearGradient id="c" x1="0.5" x2="0.5" y2="1" gradientUnits="objectBoundingBox"><stop offset="0" stop-color="#4dc1fa"/><stop offset="1" stop-color="#234ff4"/></linearGradient><filter id="d" x="209.5" y="80.5" width="150.001" height="173" filterUnits="userSpaceOnUse"><feOffset dx="8" dy="-5" input="SourceAlpha"/><feGaussianBlur stdDeviation="6.5" result="e"/><feFlood flood-opacity="0.071"/><feComposite operator="in" in2="e"/></filter><linearGradient id="f" x1="0.5" x2="0.5" y2="1" gradientUnits="objectBoundingBox"><stop offset="0" stop-color="#0bc7ff"/><stop offset="1" stop-color="#171dd4"/></linearGradient><linearGradient id="g" x1="0.5" x2="0.5" y2="1" gradientUnits="objectBoundingBox"><stop offset="0" stop-color="#fff"/><stop offset="1" stop-color="#d8d8d8"/></linearGradient><filter id="h" x="191" y="166" width="122" height="18" filterUnits="userSpaceOnUse"><feOffset dy="2" input="SourceAlpha"/><feGaussianBlur stdDeviation="1" result="i"/><feFlood flood-opacity="0.161"/><feComposite operator="in" in2="i"/><feComposite in="SourceGraphic"/></filter><filter id="k" x="191" y="139" width="122" height="18" filterUnits="userSpaceOnUse"><feOffset dy="2" input="SourceAlpha"/><feGaussianBlur stdDeviation="1" result="l"/><feFlood flood-opacity="0.161"/><feComposite operator="in" in2="l"/><feComposite in="SourceGraphic"/></filter><filter id="n" x="191" y="193" width="122" height="18" filterUnits="userSpaceOnUse"><feOffset dy="2" input="SourceAlpha"/><feGaussianBlur stdDeviation="1" result="o"/><feFlood flood-opacity="0.161"/><feComposite operator="in" in2="o"/><feComposite in="SourceGraphic"/></filter><filter id="q" x="191" y="220" width="122" height="18" filterUnits="userSpaceOnUse"><feOffset dy="2" input="SourceAlpha"/><feGaussianBlur stdDeviation="1" result="r"/><feFlood flood-opacity="0.161"/><feComposite operator="in" in2="r"/><feComposite in="SourceGraphic"/></filter><filter id="t" x="191" y="247" width="62" height="18" filterUnits="userSpaceOnUse"><feOffset dy="2" input="SourceAlpha"/><feGaussianBlur stdDeviation="1" result="u"/><feFlood flood-opacity="0.161"/><feComposite operator="in" in2="u"/><feComposite in="SourceGraphic"/></filter></defs><g transform="translate(-1070 -1551)"><g transform="matrix(1, 0, 0, 1, 1070, 1551)" filter="url(#a)"><rect width="520" height="371" rx="10" transform="translate(15 12)" fill="#151331"/></g><g transform="translate(2625 -2349)"><ellipse cx="98" cy="55.5" rx="98" ry="55.5" transform="translate(-1373 4106)" fill="#1769f2" opacity="0.76"/><rect width="138" height="164" rx="16" transform="translate(-1334 3975)" fill="url(#c)"/><g transform="matrix(1, 0, 0, 1, -1555, 3900)" filter="url(#d)"><path d="M65,164a16,16,0,0,1-16-16V30h94a17,17,0,0,1,17,17V164Z" transform="translate(172 75)" fill="#fff"/></g><rect width="160" height="190" rx="17" transform="translate(-1383 4005)" fill="url(#f)"/><g transform="matrix(1, 0, 0, 1, -1555, 3900)" filter="url(#h)"><rect width="116" height="12" rx="6" transform="translate(194 167)" fill="url(#g)"/></g><g transform="matrix(1, 0, 0, 1, -1555, 3900)" filter="url(#k)"><rect width="116" height="12" rx="6" transform="translate(194 140)" fill="url(#g)"/></g><g transform="matrix(1, 0, 0, 1, -1555, 3900)" filter="url(#n)"><rect width="116" height="12" rx="6" transform="translate(194 194)" fill="url(#g)"/></g><g transform="matrix(1, 0, 0, 1, -1555, 3900)" filter="url(#q)"><rect width="116" height="12" rx="6" transform="translate(194 221)" fill="url(#g)"/></g><g transform="matrix(1, 0, 0, 1, -1555, 3900)" filter="url(#t)"><rect width="56" height="12" rx="6" transform="translate(194 248)" fill="url(#g)"/></g><g transform="translate(-1383 4005)" fill="none" stroke="rgba(255,255,255,0.3)" stroke-width="1"><rect width="160" height="190" rx="17" stroke="none"/><rect x="-0.5" y="-0.5" width="161" height="191" rx="17.5" fill="none"/></g></g></g></svg>